<svg xmlns="http://www.w3.org/2000/svg" xmlns:xlink="http://www.w3.org/1999/xlink" version="1.1" class="marks" width="547" height="364" viewBox="0 0 547 364"><rect width="547" height="364" fill="white"/><g fill="none" stroke-miterlimit="10" transform="translate(41,27)"><g class="mark-group role-frame root" role="graphics-object" aria-roledescription="group mark container"><g transform="translate(0,0)"><path class="background" aria-hidden="true" d="M0.5,0.5h500v300h-500Z" stroke="#ddd"/><g><g class="mark-group role-axis" aria-hidden="true"><g transform="translate(0.5,300.5)"><path class="background" aria-hidden="true" d="M0,0h0v0h0Z" pointer-events="none"/><g><g class="mark-rule role-axis-grid" pointer-events="none"><line transform="translate(0,-300)" x2="0" y2="300" stroke="#ddd" stroke-width="1" opacity="1"/><line transform="translate(36,-300)" x2="0" y2="300" stroke="#ddd" stroke-width="1" opacity="1"/><line transform="translate(71,-300)" x2="0" y2="300" stroke="#ddd" stroke-width="1" opacity="1"/><line transform="translate(107,-300)" x2="0" y2="300" stroke="#ddd" stroke-width="1" opacity="1"/><line transform="translate(143,-300)" x2="0" y2="300" stroke="#ddd" stroke-width="1" opacity="1"/><line transform="translate(179,-300)" x2="0" y2="300" stroke="#ddd" stroke-width="1" opacity="1"/><line transform="translate(214,-300)" x2="0" y2="300" stroke="#ddd" stroke-width="1" opacity="1"/><line transform="translate(250,-300)" x2="0" y2="300" stroke="#ddd" stroke-width="1" opacity="1"/><line transform="translate(286,-300)" x2="0" y2="300" stroke="#ddd" stroke-width="1" opacity="1"/><line transform="translate(321,-300)" x2="0" y2="300" stroke="#ddd" stroke-width="1" opacity="1"/><line transform="translate(357,-300)" x2="0" y2="300" stroke="#ddd" stroke-width="1" opacity="1"/><line transform="translate(393,-300)" x2="0" y2="300" stroke="#ddd" stroke-width="1" opacity="1"/><line transform="translate(429,-300)" x2="0" y2="300" stroke="#ddd" stroke-width="1" opacity="1"/><line transform="translate(464,-300)" x2="0" y2="300" stroke="#ddd" stroke-width="1" opacity="1"/><line transform="translate(500,-300)" x2="0" y2="300" stroke="#ddd" stroke-width="1" opacity="1"/></g></g><path class="foreground" aria-hidden="true" d="" pointer-events="none" display="none"/></g></g><g class="mark-group role-axis" aria-hidden="true"><g transform="translate(0.5,0.5)"><path class="background" aria-hidden="true" d="M0,0h0v0h0Z" pointer-events="none"/><g><g class="mark-rule role-axis-grid" pointer-events="none"><line transform="translate(0,300)" x2="500" y2="0" stroke="#ddd" stroke-width="1" opacity="1"/><line transform="translate(0,270)" x2="500" y2="0" stroke="#ddd" stroke-width="1" opacity="1"/><line transform="translate(0,240)" x2="500" y2="0" stroke="#ddd" stroke-width="1" opacity="1"/><line transform="translate(0,210)" x2="500" y2="0" stroke="#ddd" stroke-width="1" opacity="1"/><line transform="translate(0,180)" x2="500" y2="0" stroke="#ddd" stroke-width="1" opacity="1"/><line transform="translate(0,150)" x2="500" y2="0" stroke="#ddd" stroke-width="1" opacity="1"/><line transform="translate(0,120)" x2="500" y2="0" stroke="#ddd" stroke-width="1" opacity="1"/><line transform="translate(0,90)" x2="500" y2="0" stroke="#ddd" stroke-width="1" opacity="1"/><line transform="translate(0,60)" x2="500" y2="0" stroke="#ddd" stroke-width="1" opacity="1"/><line transform="translate(0,30)" x2="500" y2="0" stroke="#ddd" stroke-width="1" opacity="1"/><line transform="translate(0,0)" x2="500" y2="0" stroke="#ddd" stroke-width="1" opacity="1"/></g></g><path class="foreground" aria-hidden="true" d="" pointer-events="none" display="none"/></g></g><g class="mark-group role-axis" role="graphics-symbol" aria-roledescription="axis" aria-label="X-axis titled 'Log Likelihood' for a linear scale with values from −102 to −74"><g transform="translate(0.5,300.5)"><path class="background" aria-hidden="true" d="M0,0h0v0h0Z" pointer-events="none"/><g><g class="mark-rule role-axis-tick" pointer-events="none"><line transform="translate(0,0)" x2="0" y2="5" stroke="#888" stroke-width="1" opacity="1"/><line transform="translate(36,0)" x2="0" y2="5" stroke="#888" stroke-width="1" opacity="1"/><line transform="translate(71,0)" x2="0" y2="5" stroke="#888" stroke-width="1" opacity="1"/><line transform="translate(107,0)" x2="0" y2="5" stroke="#888" stroke-width="1" opacity="1"/><line transform="translate(143,0)" x2="0" y2="5" stroke="#888" stroke-width="1" opacity="1"/><line transform="translate(179,0)" x2="0" y2="5" stroke="#888" stroke-width="1" opacity="1"/><line transform="translate(214,0)" x2="0" y2="5" stroke="#888" stroke-width="1" opacity="1"/><line transform="translate(250,0)" x2="0" y2="5" stroke="#888" stroke-width="1" opacity="1"/><line transform="translate(286,0)" x2="0" y2="5" stroke="#888" stroke-width="1" opacity="1"/><line transform="translate(321,0)" x2="0" y2="5" stroke="#888" stroke-width="1" opacity="1"/><line transform="translate(357,0)" x2="0" y2="5" stroke="#888" stroke-width="1" opacity="1"/><line transform="translate(393,0)" x2="0" y2="5" stroke="#888" stroke-width="1" opacity="1"/><line transform="translate(429,0)" x2="0" y2="5" stroke="#888" stroke-width="1" opacity="1"/><line transform="translate(464,0)" x2="0" y2="5" stroke="#888" stroke-width="1" opacity="1"/><line transform="translate(500,0)" x2="0" y2="5" stroke="#888" stroke-width="1" opacity="1"/></g><g class="mark-text role-axis-label" pointer-events="none"><text text-anchor="start" transform="translate(0,15)" font-family="sans-serif" font-size="10px" fill="#000" opacity="1">−102</text><text text-anchor="middle" transform="translate(35.714285714285715,15)" font-family="sans-serif" font-size="10px" fill="#000" opacity="1">−100</text><text text-anchor="middle" transform="translate(71.42857142857143,15)" font-family="sans-serif" font-size="10px" fill="#000" opacity="1">−98</text><text text-anchor="middle" transform="translate(107.14285714285714,15)" font-family="sans-serif" font-size="10px" fill="#000" opacity="1">−96</text><text text-anchor="middle" transform="translate(142.85714285714286,15)" font-family="sans-serif" font-size="10px" fill="#000" opacity="1">−94</text><text text-anchor="middle" transform="translate(178.57142857142858,15)" font-family="sans-serif" font-size="10px" fill="#000" opacity="1">−92</text><text text-anchor="middle" transform="translate(214.28571428571428,15)" font-family="sans-serif" font-size="10px" fill="#000" opacity="1">−90</text><text text-anchor="middle" transform="translate(250,15)" font-family="sans-serif" font-size="10px" fill="#000" opacity="1">−88</text><text text-anchor="middle" transform="translate(285.7142857142857,15)" font-family="sans-serif" font-size="10px" fill="#000" opacity="1">−86</text><text text-anchor="middle" transform="translate(321.42857142857144,15)" font-family="sans-serif" font-size="10px" fill="#000" opacity="1">−84</text><text text-anchor="middle" transform="translate(357.14285714285717,15)" font-family="sans-serif" font-size="10px" fill="#000" opacity="1">−82</text><text text-anchor="middle" transform="translate(392.85714285714283,15)" font-family="sans-serif" font-size="10px" fill="#000" opacity="1">−80</text><text text-anchor="middle" transform="translate(428.57142857142856,15)" font-family="sans-serif" font-size="10px" fill="#000" opacity="1">−78</text><text text-anchor="middle" transform="translate(464.2857142857143,15)" font-family="sans-serif" font-size="10px" fill="#000" opacity="1">−76</text><text text-anchor="end" transform="translate(500,15)" font-family="sans-serif" font-size="10px" fill="#000" opacity="1">−74</text></g><g class="mark-rule role-axis-domain" pointer-events="none"><line transform="translate(0,0)" x2="500" y2="0" stroke="#888" stroke-width="1" opacity="1"/></g><g class="mark-text role-axis-title" pointer-events="none"><text text-anchor="middle" transform="translate(250,30)" font-family="sans-serif" font-size="11px" font-weight="bold" fill="#000" opacity="1">Log Likelihood</text></g></g><path class="foreground" aria-hidden="true" d="" pointer-events="none" display="none"/></g></g><g class="mark-group role-axis" role="graphics-symbol" aria-roledescription="axis" aria-label="Y-axis titled 'P(X ≤ x)' for a linear scale with values from 0.0 to 1.0"><g transform="translate(0.5,0.5)"><path class="background" aria-hidden="true" d="M0,0h0v0h0Z" pointer-events="none"/><g><g class="mark-rule role-axis-tick" pointer-events="none"><line transform="translate(0,300)" x2="-5" y2="0" stroke="#888" stroke-width="1" opacity="1"/><line transform="translate(0,270)" x2="-5" y2="0" stroke="#888" stroke-width="1" opacity="1"/><line transform="translate(0,240)" x2="-5" y2="0" stroke="#888" stroke-width="1" opacity="1"/><line transform="translate(0,210)" x2="-5" y2="0" stroke="#888" stroke-width="1" opacity="1"/><line transform="translate(0,180)" x2="-5" y2="0" stroke="#888" stroke-width="1" opacity="1"/><line transform="translate(0,150)" x2="-5" y2="0" stroke="#888" stroke-width="1" opacity="1"/><line transform="translate(0,120)" x2="-5" y2="0" stroke="#888" stroke-width="1" opacity="1"/><line transform="translate(0,90)" x2="-5" y2="0" stroke="#888" stroke-width="1" opacity="1"/><line transform="translate(0,60)" x2="-5" y2="0" stroke="#888" stroke-width="1" opacity="1"/><line transform="translate(0,30)" x2="-5" y2="0" stroke="#888" stroke-width="1" opacity="1"/><line transform="translate(0,0)" x2="-5" y2="0" stroke="#888" stroke-width="1" opacity="1"/></g><g class="mark-text role-axis-label" pointer-events="none"><text text-anchor="end" transform="translate(-7,303)" font-family="sans-serif" font-size="10px" fill="#000" opacity="1">0.0</text><text text-anchor="end" transform="translate(-7,273)" font-family="sans-serif" font-size="10px" fill="#000" opacity="1">0.1</text><text text-anchor="end" transform="translate(-7,243)" font-family="sans-serif" font-size="10px" fill="#000" opacity="1">0.2</text><text text-anchor="end" transform="translate(-7,213)" font-family="sans-serif" font-size="10px" fill="#000" opacity="1">0.3</text><text text-anchor="end" transform="translate(-7,183)" font-family="sans-serif" font-size="10px" fill="#000" opacity="1">0.4</text><text text-anchor="end" transform="translate(-7,153)" font-family="sans-serif" font-size="10px" fill="#000" opacity="1">0.5</text><text text-anchor="end" transform="translate(-7,123)" font-family="sans-serif" font-size="10px" fill="#000" opacity="1">0.6</text><text text-anchor="end" transform="translate(-7,93.00000000000001)" font-family="sans-serif" font-size="10px" fill="#000" opacity="1">0.7</text><text text-anchor="end" transform="translate(-7,62.999999999999986)" font-family="sans-serif" font-size="10px" fill="#000" opacity="1">0.8</text><text text-anchor="end" transform="translate(-7,32.99999999999999)" font-family="sans-serif" font-size="10px" fill="#000" opacity="1">0.9</text><text text-anchor="end" transform="translate(-7,3)" font-family="sans-serif" font-size="10px" fill="#000" opacity="1">1.0</text></g><g class="mark-rule role-axis-domain" pointer-events="none"><line transform="translate(0,300)" x2="0" y2="-300" stroke="#888" stroke-width="1" opacity="1"/></g><g class="mark-text role-axis-title" pointer-events="none"><text text-anchor="middle" transform="translate(-24.9013671875,150) rotate(-90) translate(0,-2)" font-family="sans-serif" font-size="11px" font-weight="bold" fill="#000" opacity="1">P(X ≤ x)</text></g></g><path class="foreground" aria-hidden="true" d="" pointer-events="none" display="none"/></g></g><g class="mark-line role-mark layer_0_marks" role="graphics-object" aria-roledescription="line mark container"><path aria-label="log_odds: −101.326028976; ecdf: 0.001" role="graphics-symbol" aria-roledescription="line mark" d="M12.035,299.7L16.947,299.7L16.947,299.4L24.72,299.4L24.72,299.1L61.076,299.1L61.076,298.8L63.735,298.8L63.735,298.5L66.469,298.5L66.469,298.2L66.648,298.2L66.648,297.9L69.816,297.9L69.816,297.6L82.951,297.6L82.951,297.3L83.424,297.3L83.424,297L85.634,297L85.634,296.7L86.364,296.7L86.364,296.4L89.405,296.4L89.405,296.1L89.947,296.1L89.947,295.8L91.09,295.8L91.09,295.5L93.287,295.5L93.287,295.2L99.072,295.2L99.072,294.9L101.321,294.9L101.321,294.6L102.184,294.6L102.184,294.3L102.925,294.3L102.925,294L103.551,294L103.551,293.7L109.926,293.7L109.926,293.4L111.035,293.4L111.035,293.1L111.539,293.1L111.539,292.8L115.013,292.8L115.013,292.5L119.416,292.5L119.416,292.2L121.666,292.2L121.666,291.9L122.02,291.9L122.02,291.6L123.457,291.6L123.457,291.3L123.465,291.3L123.465,291L123.584,291L123.584,290.7L125.727,290.7L125.727,290.4L126.035,290.4L126.035,290.1L126.369,290.1L126.369,289.8L127.474,289.8L127.474,289.5L129.643,289.5L129.643,289.2L131.393,289.2L131.393,288.9L132.243,288.9L132.243,288.6L132.457,288.6L132.457,288.3L133.649,288.3L133.649,288L133.669,288L133.669,287.7L133.943,287.7L133.943,287.4L134.425,287.4L134.425,287.1L134.807,287.1L134.807,286.8L135.342,286.8L135.342,286.5L135.588,286.5L135.588,286.2L135.897,286.2L135.897,285.9L136.049,285.9L136.049,285.6L136.15,285.6L136.15,285.3L138.183,285.3L138.183,285L138.228,285L138.228,284.7L138.882,284.7L138.882,284.4L139.967,284.4L139.967,284.1L140.455,284.1L140.455,283.8L140.862,283.8L140.862,283.5L143.195,283.5L143.195,283.2L143.543,283.2L143.543,282.9L146.249,282.9L146.249,282.6L146.263,282.6L146.263,282.3L147.815,282.3L147.815,282L148.339,282L148.339,281.7L150.734,281.7L150.734,281.4L152.071,281.4L152.071,281.1L152.178,281.1L152.178,280.8L153.527,280.8L153.527,280.5L153.882,280.5L153.882,280.2L154.336,280.2L154.336,279.9L154.506,279.9L154.506,279.6L154.791,279.6L154.791,279.3L155.02,279.3L155.02,279L155.862,279L155.862,278.7L156.117,278.7L156.117,278.4L156.161,278.4L156.161,278.1L156.912,278.1L156.912,277.8L157.287,277.8L157.287,277.5L157.511,277.5L157.511,277.2L157.844,277.2L157.844,276.9L159.055,276.9L159.055,276.6L160.295,276.6L160.295,276.3L160.741,276.3L160.741,276L160.866,276L160.866,275.7L161.374,275.7L161.374,275.4L161.864,275.4L161.864,275.1L162.528,275.1L162.528,274.8L162.655,274.8L162.655,274.5L162.783,274.5L162.783,274.2L165.534,274.2L165.534,273.9L166.282,273.9L166.282,273.6L166.835,273.6L166.835,273.3L166.878,273.3L166.878,273L167.036,273L167.036,272.7L168.408,272.7L168.408,272.4L169.088,272.4L169.088,272.1L169.232,272.1L169.232,271.8L169.393,271.8L169.393,271.5L169.408,271.5L169.408,271.2L169.851,271.2L169.851,270.9L170.758,270.9L170.758,270.6L171.282,270.6L171.282,270.3L171.779,270.3L171.779,270L171.796,270L171.796,269.7L171.854,269.7L171.854,269.4L172.216,269.4L172.216,269.1L172.715,269.1L172.715,268.8L173.325,268.8L173.325,268.5L173.507,268.5L173.507,268.2L173.932,268.2L173.932,267.9L174.211,267.9L174.211,267.6L174.357,267.6L174.357,267.3L174.39,267.3L174.39,267L174.983,267L174.983,266.7L175.031,266.7L175.031,266.4L175.069,266.4L175.069,266.1L175.157,266.1L175.157,265.8L175.598,265.8L175.598,265.5L175.906,265.5L175.906,265.2L176.096,265.2L176.096,264.9L176.871,264.9L176.871,264.6L177.251,264.6L177.251,264.3L177.496,264.3L177.496,264L178.181,264L178.181,263.7L178.216,263.7L178.216,263.4L178.712,263.4L178.712,263.1L178.997,263.1L178.997,262.8L179.465,262.8L179.465,262.5L179.49,262.5L179.49,262.2L180.233,262.2L180.233,261.9L180.884,261.9L180.884,261.6L180.98,261.6L180.98,261.3L181.17,261.3L181.17,261L181.479,261L181.479,260.7L182.085,260.7L182.085,260.4L182.242,260.4L182.242,260.1L182.448,260.1L182.448,259.8L183.244,259.8L183.244,259.5L183.393,259.5L183.393,259.2L183.414,259.2L183.414,258.9L183.873,258.9L183.873,258.6L183.926,258.6L183.926,258.3L184.355,258.3L184.355,258L184.453,258L184.453,257.7L184.532,257.7L184.532,257.4L185.144,257.4L185.144,257.1L185.378,257.1L185.378,256.8L185.793,256.8L185.793,256.5L186.047,256.5L186.047,256.2L186.341,256.2L186.341,255.9L186.375,255.9L186.375,255.6L186.608,255.6L186.608,255.3L186.891,255.3L186.891,255L187.175,255L187.175,254.7L189.07,254.7L189.07,254.4L189.178,254.4L189.178,254.1L189.602,254.1L189.602,253.8L189.75,253.8L189.75,253.5L189.849,253.5L189.849,253.2L190.198,253.2L190.198,252.9L190.681,252.9L190.681,252.6L191.519,252.6L191.519,252.3L191.806,252.3L191.806,252L192.916,252L192.916,251.7L193.393,251.7L193.393,251.4L193.601,251.4L193.601,251.1L193.832,251.1L193.832,250.8L193.93,250.8L193.93,250.5L194.157,250.5L194.157,250.2L194.437,250.2L194.437,249.9L194.592,249.9L194.592,249.6L194.599,249.6L194.599,249.3L195.266,249.3L195.266,249L195.283,249L195.283,248.7L195.289,248.7L195.289,248.4L195.798,248.4L195.798,248.1L196.048,248.1L196.048,247.8L196.056,247.8L196.056,247.5L196.644,247.5L196.644,247.2L197.881,247.2L197.881,246.9L197.968,246.9L197.968,246.6L198.761,246.6L198.761,246.3L198.954,246.3L198.954,246L199.676,246L199.676,245.7L199.899,245.7L199.899,245.4L199.979,245.4L199.979,245.1L200.256,245.1L200.256,244.8L200.675,244.8L200.675,244.5L201.531,244.5L201.531,244.2L201.984,244.2L201.984,243.9L202.027,243.9L202.027,243.6L202.849,243.6L202.849,243.3L203.802,243.3L203.802,243L205.064,243L205.064,242.7L205.172,242.7L205.172,242.4L206.17,242.4L206.17,242.1L206.767,242.1L206.767,241.8L206.94,241.8L206.94,241.5L206.951,241.5L206.951,241.2L208.098,241.2L208.098,240.9L208.391,240.9L208.391,240.6L209.189,240.6L209.189,240.3L209.907,240.3L209.907,240L210.542,240L210.542,239.7L210.696,239.7L210.696,239.4L211.146,239.4L211.146,239.1L211.376,239.1L211.376,238.8L212.24,238.8L212.24,238.5L212.468,238.5L212.468,238.2L212.77,238.2L212.77,237.9L212.815,237.9L212.815,237.6L213.625,237.6L213.625,237.3L213.726,237.3L213.726,237L213.772,237L213.772,236.7L214.457,236.7L214.457,236.4L214.89,236.4L214.89,236.1L214.955,236.1L214.955,235.8L215.05,235.8L215.05,235.5L215.158,235.5L215.158,235.2L215.198,235.2L215.198,234.9L215.419,234.9L215.419,234.6L215.485,234.6L215.485,234.3L215.733,234.3L215.733,234L215.796,234L215.796,233.7L216.246,233.7L216.246,233.4L216.519,233.4L216.519,233.1L216.697,233.1L216.697,232.8L216.746,232.8L216.746,232.5L216.87,232.5L216.87,232.2L216.933,232.2L216.933,231.9L217.177,231.9L217.177,231.6L217.321,231.6L217.321,231.3L217.844,231.3L217.844,231L218.411,231L218.411,230.7L218.829,230.7L218.829,230.4L218.851,230.4L218.851,230.1L218.915,230.1L218.915,229.8L219.151,229.8L219.151,229.5L219.294,229.5L219.294,229.2L219.356,229.2L219.356,228.9L219.454,228.9L219.454,228.6L220.039,228.6L220.039,228.3L220.141,228.3L220.141,228L220.844,228L220.844,227.7L221.147,227.7L221.147,227.4L221.23,227.4L221.23,227.1L222.278,227.1L222.278,226.8L222.384,226.8L222.384,226.5L222.608,226.5L222.608,226.2L223.111,226.2L223.111,225.9L223.792,225.9L223.792,225.6L223.806,225.6L223.806,225.3L224.092,225.3L224.092,225L225.457,225L225.457,224.7L225.705,224.7L225.705,224.4L225.878,224.4L225.878,224.1L226.287,224.1L226.287,223.8L226.323,223.8L226.323,223.5L226.397,223.5L226.397,223.2L226.587,223.2L226.587,222.9L226.669,222.9L226.669,222.6L226.678,222.6L226.678,222.3L227.129,222.3L227.129,222L227.191,222L227.191,221.7L227.964,221.7L227.964,221.4L228.079,221.4L228.079,221.1L228.214,221.1L228.214,220.8L228.232,220.8L228.232,220.5L228.264,220.5L228.264,220.2L228.355,220.2L228.355,219.9L228.575,219.9L228.575,219.6L228.731,219.6L228.731,219.3L228.936,219.3L228.936,219L229.518,219L229.518,218.7L229.538,218.7L229.538,218.4L229.545,218.4L229.545,218.1L229.781,218.1L229.781,217.8L230.179,217.8L230.179,217.5L230.452,217.5L230.452,217.2L230.52,217.2L230.52,216.9L230.582,216.9L230.582,216.6L231.104,216.6L231.104,216.3L231.213,216.3L231.213,216L231.295,216L231.295,215.7L231.376,215.7L231.376,215.4L231.483,215.4L231.483,215.1L231.586,215.1L231.586,214.8L231.733,214.8L231.733,214.5L232.202,214.5L232.202,214.2L232.377,214.2L232.377,213.9L232.497,213.9L232.497,213.6L233.411,213.6L233.411,213.3L233.603,213.3L233.603,213L234.08,213L234.08,212.7L234.687,212.7L234.687,212.4L234.867,212.4L234.867,212.1L235.63,212.1L235.63,211.8L236.501,211.8L236.501,211.5L236.829,211.5L236.829,211.2L237.455,211.2L237.455,210.9L237.522,210.9L237.522,210.6L238.239,210.6L238.239,210.3L239.005,210.3L239.005,210L239.083,210L239.083,209.7L239.37,209.7L239.37,209.4L239.824,209.4L239.824,209.1L239.921,209.1L239.921,208.8L240.023,208.8L240.023,208.5L240.759,208.5L240.759,208.2L240.93,208.2L240.93,207.9L241.004,207.9L241.004,207.6L241.117,207.6L241.117,207.3L241.255,207.3L241.255,207L241.354,207L241.354,206.7L241.955,206.7L241.955,206.4L242.557,206.4L242.557,206.1L242.64,206.1L242.64,205.8L242.66,205.8L242.66,205.5L242.986,205.5L242.986,205.2L243.08,205.2L243.08,204.9L243.542,204.9L243.542,204.6L243.607,204.6L243.607,204.3L243.854,204.3L243.854,204L243.87,204L243.87,203.7L244.014,203.7L244.014,203.4L244.183,203.4L244.183,203.1L244.257,203.1L244.257,202.8L244.387,202.8L244.387,202.5L244.495,202.5L244.495,202.2L244.528,202.2L244.528,201.9L244.544,201.9L244.544,201.6L244.663,201.6L244.663,201.3L244.845,201.3L244.845,201L245.423,201L245.423,200.7L245.52,200.7L245.52,200.4L245.733,200.4L245.733,200.1L246.555,200.1L246.555,199.8L247.093,199.8L247.093,199.5L247.282,199.5L247.282,199.2L247.37,199.2L247.37,198.9L247.372,198.9L247.372,198.6L247.993,198.6L247.993,198.3L248.002,198.3L248.002,198L248.076,198L248.076,197.7L248.288,197.7L248.288,197.4L248.689,197.4L248.689,197.1L248.948,197.1L248.948,196.8L248.986,196.8L248.986,196.5L249.453,196.5L249.453,196.2L249.933,196.2L249.933,195.9L250.098,195.9L250.098,195.6L250.167,195.6L250.167,195.3L250.176,195.3L250.176,195L250.204,195L250.204,194.7L250.211,194.7L250.211,194.4L250.426,194.4L250.426,194.1L252.007,194.1L252.007,193.8L252.022,193.8L252.022,193.5L252.147,193.5L252.147,193.2L252.649,193.2L252.649,192.9L252.924,192.9L252.924,192.6L253.04,192.6L253.04,192.3L253.052,192.3L253.052,192L253.694,192L253.694,191.7L253.808,191.7L253.808,191.4L254.221,191.4L254.221,191.1L254.413,191.1L254.413,190.8L254.761,190.8L254.761,190.5L255.164,190.5L255.164,190.2L255.467,190.2L255.467,189.9L255.67,189.9L255.67,189.6L255.7,189.6L255.7,189.3L255.861,189.3L255.861,189L256.142,189L256.142,188.7L256.162,188.7L256.162,188.4L256.187,188.4L256.187,188.1L256.238,188.1L256.238,187.8L256.294,187.8L256.294,187.5L256.305,187.5L256.305,187.2L256.764,187.2L256.764,186.9L257.244,186.9L257.244,186.6L257.686,186.6L257.686,186.3L257.918,186.3L257.918,186L257.999,186L257.999,185.7L258.689,185.7L258.689,185.4L258.787,185.4L258.787,185.1L259.213,185.1L259.213,184.8L259.413,184.8L259.413,184.5L259.647,184.5L259.647,184.2L259.783,184.2L259.783,183.9L260.08,183.9L260.08,183.6L260.381,183.6L260.381,183.3L260.644,183.3L260.644,183L260.757,183L260.757,182.7L260.783,182.7L260.783,182.4L261.47,182.4L261.47,182.1L261.884,182.1L261.884,181.8L262.108,181.8L262.108,181.5L262.192,181.5L262.192,181.2L262.241,181.2L262.241,180.9L262.287,180.9L262.287,180.6L262.428,180.6L262.428,180.3L262.457,180.3L262.457,180L262.551,180L262.551,179.7L263.075,179.7L263.075,179.4L263.091,179.4L263.091,179.1L263.225,179.1L263.225,178.8L263.436,178.8L263.436,178.5L263.611,178.5L263.611,178.2L263.641,178.2L263.641,177.9L263.644,177.9L263.644,177.6L264.111,177.6L264.111,177.3L264.356,177.3L264.356,177L264.362,177L264.362,176.7L264.421,176.7L264.421,176.4L264.445,176.4L264.445,176.1L264.651,176.1L264.651,175.8L264.759,175.8L264.759,175.5L265.497,175.5L265.497,175.2L265.633,175.2L265.633,174.9L265.646,174.9L265.646,174.6L265.776,174.6L265.776,174.3L265.809,174.3L265.809,174L265.933,174L265.933,173.7L265.958,173.7L265.958,173.4L266.078,173.4L266.078,173.1L266.238,173.1L266.238,172.8L266.269,172.8L266.269,172.5L266.462,172.5L266.462,172.2L267.059,172.2L267.059,171.9L267.289,171.9L267.289,171.6L267.771,171.6L267.771,171.3L267.783,171.3L267.783,171L267.785,171L267.785,170.7L267.936,170.7L267.936,170.4L267.968,170.4L267.968,170.1L268.248,170.1L268.248,169.8L268.878,169.8L268.878,169.5L268.902,169.5L268.902,169.2L269.001,169.2L269.001,168.9L269.156,168.9L269.156,168.6L269.174,168.6L269.174,168.3L269.438,168.3L269.438,168L269.596,168L269.596,167.7L270.082,167.7L270.082,167.4L270.363,167.4L270.363,167.1L270.94,167.1L270.94,166.8L271.004,166.8L271.004,166.5L271.029,166.5L271.029,166.2L271.308,166.2L271.308,165.9L271.317,165.9L271.317,165.6L271.337,165.6L271.337,165.3L271.879,165.3L271.879,165L271.909,165L271.909,164.7L272.024,164.7L272.024,164.4L272.478,164.4L272.478,164.1L272.74,164.1L272.74,163.8L272.898,163.8L272.898,163.5L272.984,163.5L272.984,163.2L273.141,163.2L273.141,162.9L273.146,162.9L273.146,162.6L273.21,162.6L273.21,162.3L273.479,162.3L273.479,162L273.958,162L273.958,161.7L274.142,161.7L274.142,161.4L274.166,161.4L274.166,161.1L274.719,161.1L274.719,160.8L274.739,160.8L274.739,160.5L274.86,160.5L274.86,160.2L275.01,160.2L275.01,159.9L275.261,159.9L275.261,159.6L275.395,159.6L275.395,159.3L275.718,159.3L275.718,159L275.994,159L275.994,158.7L276.216,158.7L276.216,158.4L276.237,158.4L276.237,158.1L276.285,158.1L276.285,157.8L276.297,157.8L276.297,157.5L276.783,157.5L276.783,157.2L277.203,157.2L277.203,156.9L277.249,156.9L277.249,156.6L277.488,156.6L277.488,156.3L277.495,156.3L277.495,156L277.53,156L277.53,155.7L278.26,155.7L278.26,155.4L278.359,155.4L278.359,155.1L278.509,155.1L278.509,154.8L279.335,154.8L279.335,154.5L279.423,154.5L279.423,154.2L279.676,154.2L279.676,153.9L279.713,153.9L279.713,153.6L279.921,153.6L279.921,153.3L280.49,153.3L280.49,153L280.535,153L280.535,152.7L280.734,152.7L280.734,152.4L280.866,152.4L280.866,152.1L280.897,152.1L280.897,151.8L280.991,151.8L280.991,151.5L281.128,151.5L281.128,151.2L281.142,151.2L281.142,150.9L281.149,150.9L281.149,150.6L281.68,150.6L281.68,150.3L281.894,150.3L281.894,150L281.99,150L281.99,149.7L282.102,149.7L282.102,149.4L282.228,149.4L282.228,149.1L282.276,149.1L282.276,148.8L282.614,148.8L282.614,148.5L282.765,148.5L282.765,148.2L282.947,148.2L282.947,147.9L283.309,147.9L283.309,147.6L283.371,147.6L283.371,147.3L283.497,147.3L283.497,147L283.679,147L283.679,146.7L284.05,146.7L284.05,146.4L284.188,146.4L284.188,146.1L284.448,146.1L284.448,145.8L284.988,145.8L284.988,145.5L285.373,145.5L285.373,145.2L285.555,145.2L285.555,144.9L285.711,144.9L285.711,144.6L286.058,144.6L286.058,144.3L286.065,144.3L286.065,144L286.335,144L286.335,143.7L286.457,143.7L286.457,143.4L286.637,143.4L286.637,143.1L286.693,143.1L286.693,142.8L286.725,142.8L286.725,142.5L286.829,142.5L286.829,142.2L286.971,142.2L286.971,141.9L287.235,141.9L287.235,141.6L287.45,141.6L287.45,141.3L287.754,141.3L287.754,141L287.851,141L287.851,140.7L288.452,140.7L288.452,140.4L288.624,140.4L288.624,140.1L289.027,140.1L289.027,139.8L289.063,139.8L289.063,139.5L289.142,139.5L289.142,139.2L289.468,139.2L289.468,138.9L289.706,138.9L289.706,138.6L289.789,138.6L289.789,138.3L289.852,138.3L289.852,138L291.089,138L291.089,137.7L291.266,137.7L291.266,137.4L291.31,137.4L291.31,137.1L291.934,137.1L291.934,136.8L292.207,136.8L292.207,136.5L292.416,136.5L292.416,136.2L292.484,136.2L292.484,135.9L292.654,135.9L292.654,135.6L292.735,135.6L292.735,135.3L292.855,135.3L292.855,135L292.988,135L292.988,134.7L293.052,134.7L293.052,134.4L293.069,134.4L293.069,134.1L293.075,134.1L293.075,133.8L293.61,133.8L293.61,133.5L294.134,133.5L294.134,133.2L294.135,133.2L294.135,132.9L294.202,132.9L294.202,132.6L294.551,132.6L294.551,132.3L294.69,132.3L294.69,132L294.975,132L294.975,131.7L295.024,131.7L295.024,131.4L295.623,131.4L295.623,131.1L295.655,131.1L295.655,130.8L295.742,130.8L295.742,130.5L295.829,130.5L295.829,130.2L295.956,130.2L295.956,129.9L296.172,129.9L296.172,129.6L296.289,129.6L296.289,129.3L296.298,129.3L296.298,129L296.451,129L296.451,128.7L296.542,128.7L296.542,128.4L296.619,128.4L296.619,128.1L297.02,128.1L297.02,127.8L297.522,127.8L297.522,127.5L297.721,127.5L297.721,127.2L297.726,127.2L297.726,126.9L297.74,126.9L297.74,126.6L297.788,126.6L297.788,126.3L298.035,126.3L298.035,126L298.121,126L298.121,125.7L298.476,125.7L298.476,125.4L298.603,125.4L298.603,125.1L299.007,125.1L299.007,124.8L299.187,124.8L299.187,124.5L299.537,124.5L299.537,124.2L299.974,124.2L299.974,123.9L300.047,123.9L300.047,123.6L300.119,123.6L300.119,123.3L300.171,123.3L300.171,123L300.388,123L300.388,122.7L300.392,122.7L300.392,122.4L300.707,122.4L300.707,122.1L300.957,122.1L300.957,121.8L301.464,121.8L301.464,121.5L301.518,121.5L301.518,121.2L301.535,121.2L301.535,120.9L301.542,120.9L301.542,120.6L301.973,120.6L301.973,120.3L302.222,120.3L302.222,120L302.786,120L302.786,119.7L302.886,119.7L302.886,119.4L302.969,119.4L302.969,119.1L303.334,119.1L303.334,118.8L303.395,118.8L303.395,118.5L303.408,118.5L303.408,118.2L303.504,118.2L303.504,117.9L303.654,117.9L303.654,117.6L303.818,117.6L303.818,117.3L304.037,117.3L304.037,117L304.217,117L304.217,116.7L304.655,116.7L304.655,116.4L304.809,116.4L304.809,116.1L305.379,116.1L305.379,115.8L305.586,115.8L305.586,115.5L305.643,115.5L305.643,115.2L306.012,115.2L306.012,114.9L306.29,114.9L306.29,114.6L306.835,114.6L306.835,114.3L306.844,114.3L306.844,114L306.891,114L306.891,113.7L307.203,113.7L307.203,113.4L308.003,113.4L308.003,113.1L308.211,113.1L308.211,112.8L308.567,112.8L308.567,112.5L308.764,112.5L308.764,112.2L308.811,112.2L308.811,111.9L308.861,111.9L308.861,111.6L308.924,111.6L308.924,111.3L309.532,111.3L309.532,111L309.93,111L309.93,110.7L309.976,110.7L309.976,110.4L309.981,110.4L309.981,110.1L310.209,110.1L310.209,109.8L310.726,109.8L310.726,109.5L310.824,109.5L310.824,109.2L311.709,109.2L311.709,108.9L311.845,108.9L311.845,108.6L311.864,108.6L311.864,108.3L313.08,108.3L313.08,108L313.158,108L313.158,107.7L313.322,107.7L313.322,107.4L313.353,107.4L313.353,107.1L313.494,107.1L313.494,106.8L314.041,106.8L314.041,106.5L314.063,106.5L314.063,106.2L314.329,106.2L314.329,105.9L314.755,105.9L314.755,105.6L315.058,105.6L315.058,105.3L315.248,105.3L315.248,105L315.334,105L315.334,104.7L315.582,104.7L315.582,104.4L315.65,104.4L315.65,104.1L315.801,104.1L315.801,103.8L316.089,103.8L316.089,103.5L316.365,103.5L316.365,103.2L316.575,103.2L316.575,102.9L316.627,102.9L316.627,102.6L316.854,102.6L316.854,102.3L317.06,102.3L317.06,102L317.103,102L317.103,101.7L317.367,101.7L317.367,101.4L317.512,101.4L317.512,101.1L317.828,101.1L317.828,100.8L318.336,100.8L318.336,100.5L318.38,100.5L318.38,100.2L318.525,100.2L318.525,99.9L318.572,99.9L318.572,99.6L318.67,99.6L318.67,99.3L318.998,99.3L318.998,99L319.336,99L319.336,98.7L319.465,98.7L319.465,98.4L319.494,98.4L319.494,98.1L319.495,98.1L319.495,97.8L319.798,97.8L319.798,97.5L320.352,97.5L320.352,97.2L320.36,97.2L320.36,96.9L320.56,96.9L320.56,96.6L320.563,96.6L320.563,96.3L320.636,96.3L320.636,96L320.759,96L320.759,95.7L320.861,95.7L320.861,95.4L321.032,95.4L321.032,95.1L321.308,95.1L321.308,94.8L321.9,94.8L321.9,94.5L321.917,94.5L321.917,94.2L321.974,94.2L321.974,93.9L322.049,93.9L322.049,93.6L322.139,93.6L322.139,93.3L322.163,93.3L322.163,93L322.25,93L322.25,92.7L322.28,92.7L322.28,92.4L322.452,92.4L322.452,92.1L322.494,92.1L322.494,91.8L322.676,91.8L322.676,91.5L322.797,91.5L322.797,91.2L322.963,91.2L322.963,90.9L323.005,90.9L323.005,90.6L323.348,90.6L323.348,90.3L323.504,90.3L323.504,90L323.562,90L323.562,89.7L323.87,89.7L323.87,89.4L324.007,89.4L324.007,89.1L324.016,89.1L324.016,88.8L324.307,88.8L324.307,88.5L324.316,88.5L324.316,88.2L324.511,88.2L324.511,87.9L324.68,87.9L324.68,87.6L324.914,87.6L324.914,87.3L324.986,87.3L324.986,87L324.996,87L324.996,86.7L325.211,86.7L325.211,86.4L325.24,86.4L325.24,86.1L325.315,86.1L325.315,85.8L325.367,85.8L325.367,85.5L325.431,85.5L325.431,85.2L325.559,85.2L325.559,84.9L325.581,84.9L325.581,84.6L325.662,84.6L325.662,84.3L325.683,84.3L325.683,84L325.855,84L325.855,83.7L326.397,83.7L326.397,83.4L326.704,83.4L326.704,83.1L327.291,83.1L327.291,82.8L327.527,82.8L327.527,82.5L327.543,82.5L327.543,82.2L327.589,82.2L327.589,81.9L327.967,81.9L327.967,81.6L328.061,81.6L328.061,81.3L328.312,81.3L328.312,81L328.336,81L328.336,80.7L328.347,80.7L328.347,80.4L328.811,80.4L328.811,80.1L328.839,80.1L328.839,79.8L329.496,79.8L329.496,79.5L329.642,79.5L329.642,79.2L329.895,79.2L329.895,78.9L330.165,78.9L330.165,78.6L330.192,78.6L330.192,78.3L330.376,78.3L330.376,78L331.18,78L331.18,77.7L331.626,77.7L331.626,77.4L332.396,77.4L332.396,77.1L332.601,77.1L332.601,76.8L332.729,76.8L332.729,76.5L332.855,76.5L332.855,76.2L333.329,76.2L333.329,75.9L333.8,75.9L333.8,75.6L333.861,75.6L333.861,75.3L333.951,75.3L333.951,75L334.246,75L334.246,74.7L334.362,74.7L334.362,74.4L334.508,74.4L334.508,74.1L334.707,74.1L334.707,73.8L334.777,73.8L334.777,73.5L334.799,73.5L334.799,73.2L335.131,73.2L335.131,72.9L335.235,72.9L335.235,72.6L335.402,72.6L335.402,72.3L335.763,72.3L335.763,72L336.445,72L336.445,71.7L336.909,71.7L336.909,71.4L336.925,71.4L336.925,71.1L337.02,71.1L337.02,70.8L337.149,70.8L337.149,70.5L337.153,70.5L337.153,70.2L338.026,70.2L338.026,69.9L338.259,69.9L338.259,69.6L338.307,69.6L338.307,69.3L338.641,69.3L338.641,69L338.896,69L338.896,68.7L339.053,68.7L339.053,68.4L339.321,68.4L339.321,68.1L339.529,68.1L339.529,67.8L339.634,67.8L339.634,67.5L339.814,67.5L339.814,67.2L339.96,67.2L339.96,66.9L340.006,66.9L340.006,66.6L340.299,66.6L340.299,66.3L340.833,66.3L340.833,66L341.005,66L341.005,65.7L341.177,65.7L341.177,65.4L341.194,65.4L341.194,65.1L341.23,65.1L341.23,64.8L341.281,64.8L341.281,64.5L341.373,64.5L341.373,64.2L341.492,64.2L341.492,63.9L341.859,63.9L341.859,63.6L342.13,63.6L342.13,63.3L342.325,63.3L342.325,63L342.367,63L342.367,62.7L342.901,62.7L342.901,62.4L342.949,62.4L342.949,62.1L343.519,62.1L343.519,61.8L343.815,61.8L343.815,61.5L344.037,61.5L344.037,61.2L344.31,61.2L344.31,60.9L344.328,60.9L344.328,60.6L344.638,60.6L344.638,60.3L344.78,60.3L344.78,60L344.833,60L344.833,59.7L345.047,59.7L345.047,59.4L345.082,59.4L345.082,59.1L345.139,59.1L345.139,58.8L345.214,58.8L345.214,58.5L345.253,58.5L345.253,58.2L345.414,58.2L345.414,57.9L345.768,57.9L345.768,57.6L346.096,57.6L346.096,57.3L346.176,57.3L346.176,57L346.178,57L346.178,56.7L346.21,56.7L346.21,56.4L346.248,56.4L346.248,56.1L346.56,56.1L346.56,55.8L346.639,55.8L346.639,55.5L346.704,55.5L346.704,55.2L346.783,55.2L346.783,54.9L346.822,54.9L346.822,54.6L346.831,54.6L346.831,54.3L346.871,54.3L346.871,54L347.445,54L347.445,53.7L347.459,53.7L347.459,53.4L347.875,53.4L347.875,53.1L347.975,53.1L347.975,52.8L348.75,52.8L348.75,52.5L348.853,52.5L348.853,52.2L349.252,52.2L349.252,51.9L349.386,51.9L349.386,51.6L349.431,51.6L349.431,51.3L349.544,51.3L349.544,51L349.602,51L349.602,50.7L350.042,50.7L350.042,50.4L350.729,50.4L350.729,50.1L350.783,50.1L350.783,49.8L351.453,49.8L351.453,49.5L352.212,49.5L352.212,49.2L352.401,49.2L352.401,48.9L353.116,48.9L353.116,48.6L353.635,48.6L353.635,48.3L353.7,48.3L353.7,48L353.933,48L353.933,47.7L353.951,47.7L353.951,47.4L354.13,47.4L354.13,47.1L354.503,47.1L354.503,46.8L354.8,46.8L354.8,46.5L354.872,46.5L354.872,46.2L355.37,46.2L355.37,45.9L355.375,45.9L355.375,45.6L355.52,45.6L355.52,45.3L355.88,45.3L355.88,45L355.927,45L355.927,44.7L355.95,44.7L355.95,44.4L356.23,44.4L356.23,44.1L356.273,44.1L356.273,43.8L356.319,43.8L356.319,43.5L356.754,43.5L356.754,43.2L357.067,43.2L357.067,42.9L357.191,42.9L357.191,42.6L357.26,42.6L357.26,42.3L357.623,42.3L357.623,42L358.315,42L358.315,41.7L358.437,41.7L358.437,41.4L358.81,41.4L358.81,41.1L358.814,41.1L358.814,40.8L358.969,40.8L358.969,40.5L359.091,40.5L359.091,40.2L359.304,40.2L359.304,39.9L359.602,39.9L359.602,39.6L359.616,39.6L359.616,39.3L359.639,39.3L359.639,39L359.875,39L359.875,38.7L360.027,38.7L360.027,38.4L360.08,38.4L360.08,38.1L360.663,38.1L360.663,37.8L360.784,37.8L360.784,37.5L361.189,37.5L361.189,37.2L361.283,37.2L361.283,36.9L361.286,36.9L361.286,36.6L361.571,36.6L361.571,36.3L361.594,36.3L361.594,36L361.992,36L361.992,35.7L362.113,35.7L362.113,35.4L362.514,35.4L362.514,35.1L362.929,35.1L362.929,34.8L363.02,34.8L363.02,34.5L363.183,34.5L363.183,34.2L363.481,34.2L363.481,33.9L363.615,33.9L363.615,33.6L363.846,33.6L363.846,33.3L363.873,33.3L363.873,33L364.206,33L364.206,32.7L364.534,32.7L364.534,32.4L365.255,32.4L365.255,32.1L365.43,32.1L365.43,31.8L365.455,31.8L365.455,31.5L366.218,31.5L366.218,31.2L367.097,31.2L367.097,30.9L367.523,30.9L367.523,30.6L367.661,30.6L367.661,30.3L368.308,30.3L368.308,30L369.14,30L369.14,29.7L369.202,29.7L369.202,29.4L369.304,29.4L369.304,29.1L370.03,29.1L370.03,28.8L370.249,28.8L370.249,28.5L372.417,28.5L372.417,28.2L373.263,28.2L373.263,27.9L373.748,27.9L373.748,27.6L374.041,27.6L374.041,27.3L374.38,27.3L374.38,27L374.447,27L374.447,26.7L375.976,26.7L375.976,26.4L376.162,26.4L376.162,26.1L376.224,26.1L376.224,25.8L376.753,25.8L376.753,25.5L377.206,25.5L377.206,25.2L377.267,25.2L377.267,24.9L377.347,24.9L377.347,24.6L377.684,24.6L377.684,24.3L377.948,24.3L377.948,24L378.168,24L378.168,23.7L379.423,23.7L379.423,23.4L379.484,23.4L379.484,23.1L380.71,23.1L380.71,22.8L380.773,22.8L380.773,22.5L380.871,22.5L380.871,22.2L381.038,22.2L381.038,21.9L381.317,21.9L381.317,21.6L382.026,21.6L382.026,21.3L383.27,21.3L383.27,21L383.642,21L383.642,20.7L383.789,20.7L383.789,20.4L383.831,20.4L383.831,20.1L383.884,20.1L383.884,19.8L383.991,19.8L383.991,19.5L384.167,19.5L384.167,19.2L384.401,19.2L384.401,18.9L384.957,18.9L384.957,18.6L385.915,18.6L385.915,18.3L386.213,18.3L386.213,18L386.516,18L386.516,17.7L386.741,17.7L386.741,17.4L387.016,17.4L387.016,17.1L387.517,17.1L387.517,16.8L388.829,16.8L388.829,16.5L389.212,16.5L389.212,16.2L391.357,16.2L391.357,15.9L392.093,15.9L392.093,15.6L393.01,15.6L393.01,15.3L394.309,15.3L394.309,15L395.124,15L395.124,14.7L395.934,14.7L395.934,14.4L396.906,14.4L396.906,14.1L397.064,14.1L397.064,13.8L397.5,13.8L397.5,13.5L398.688,13.5L398.688,13.2L400.774,13.2L400.774,12.9L401.552,12.9L401.552,12.6L401.672,12.6L401.672,12.3L401.833,12.3L401.833,12L403.1,12L403.1,11.7L404.721,11.7L404.721,11.4L404.865,11.4L404.865,11.1L406.032,11.1L406.032,10.8L406.682,10.8L406.682,10.5L407.022,10.5L407.022,10.2L408.783,10.2L408.783,9.9L410.123,9.9L410.123,9.6L411.263,9.6L411.263,9.3L411.501,9.3L411.501,9L412.423,9L412.423,8.7L412.525,8.7L412.525,8.4L413.819,8.4L413.819,8.1L414.712,8.1L414.712,7.8L418.037,7.8L418.037,7.5L418.268,7.5L418.268,7.2L419.117,7.2L419.117,6.9L419.43,6.9L419.43,6.6L421.986,6.6L421.986,6.3L423.139,6.3L423.139,6L423.258,6L423.258,5.7L423.546,5.7L423.546,5.4L423.931,5.4L423.931,5.1L424.451,5.1L424.451,4.8L424.875,4.8L424.875,4.5L427.341,4.5L427.341,4.2L429.701,4.2L429.701,3.9L430.04,3.9L430.04,3.6L431.536,3.6L431.536,3.3L434.517,3.3L434.517,3L436.222,3L436.222,2.7L436.674,2.7L436.674,2.4L438.508,2.4L438.508,2.1L440.184,2.1L440.184,1.8L442.079,1.8L442.079,1.5L442.848,1.5L442.848,1.2L445.31,1.2L445.31,0.9L454.588,0.9L454.588,0.6L454.598,0.6L454.598,0.3L490.292,0.3L490.292,0" stroke="#4c78a8" stroke-width="2"/></g><g class="mark-rule role-mark layer_1_marks" role="graphics-symbol" aria-roledescription="rule mark container"><line transform="translate(179.40856148969584,0)" x2="0" y2="300" stroke="orange" stroke-width="3" stroke-dasharray="8,8"/></g><g class="mark-group role-title"><g transform="translate(250,-22)"><path class="background" aria-hidden="true" d="M0,0h0v0h0Z" pointer-events="none"/><g><g class="mark-text role-title-text" role="graphics-symbol" aria-roledescription="title" aria-label="Title text 'ECDF of 1000 Simulated Log-Likelihoods'" pointer-events="none"><text text-anchor="middle" transform="translate(0,10)" font-family="sans-serif" font-size="13px" font-weight="bold" fill="#000" opacity="1">ECDF of 1000 Simulated Log-Likelihoods</text></g></g><path class="foreground" aria-hidden="true" d="" pointer-events="none" display="none"/></g></g></g><path class="foreground" aria-hidden="true" d="" display="none"/></g></g></g></svg>